<svg xmlns="http://www.w3.org/2000/svg" version="1.1" xmlns:xlink="http://www.w3.org/1999/xlink" xmlns:svgjs="http://svgjs.dev/svgjs" width="1000" height="1000" viewBox="0 0 1000 1000"><rect width="1000" height="1000" fill="#ffffff"></rect><g transform="matrix(0.7,0,0,0.7,149.57575757575756,297.36960510660083)"><svg viewBox="0 0 396 229" data-background-color="#ffffff" preserveAspectRatio="xMidYMid meet" height="578" width="1000" xmlns="http://www.w3.org/2000/svg" xmlns:xlink="http://www.w3.org/1999/xlink"><g id="tight-bounds" transform="matrix(1,0,0,1,0.2400000000000091,0.18700056991698943)"><svg viewBox="0 0 395.52 228.62599886016602" height="228.62599886016602" width="395.52"><g><svg viewBox="0 0 395.52 228.62599886016602" height="228.62599886016602" width="395.52"><g transform="matrix(1,0,0,1,0,161.8665362097881)"><svg viewBox="0 0 395.52 66.75946265037793" height="66.75946265037793" width="395.52"><g id="textblocktransform"><svg viewBox="0 0 395.52 66.75946265037793" height="66.75946265037793" width="395.52" id="textblock"><g><svg viewBox="0 0 395.52 36.00686414708886" height="36.00686414708886" width="395.52"><g transform="matrix(1,0,0,1,0,0)"><svg width="395.52" viewBox="2.75 -34.85 391.57 35.650000000000006" height="36.00686414708886" data-palette-color="#c56e33"><path d="M16.65 0.8Q12.35 0.8 9.22-1.33 6.1-3.45 4.42-7.43 2.75-11.4 2.75-16.95L2.75-16.95Q2.75-22.55 4.38-26.58 6-30.6 9.03-32.73 12.05-34.85 16.2-34.85L16.2-34.85Q20.45-34.85 23.48-32.98 26.5-31.1 28.2-27.7L28.2-27.7 25.2-25.95Q23.6-28.9 21.45-30.18 19.3-31.45 16.2-31.45L16.2-31.45Q11.75-31.45 9.22-27.63 6.7-23.8 6.7-17L6.7-17Q6.7-12.55 7.85-9.3 9-6.05 11.15-4.33 13.3-2.6 16.15-2.6L16.15-2.6Q19.7-2.6 21.68-4.17 23.65-5.75 25.35-9.1L25.35-9.1 28.5-7.2Q26.7-3.3 23.73-1.25 20.75 0.8 16.65 0.8L16.65 0.8ZM58.9 0L55.4 0 51.9-9.55 37.75-9.55 34.6 0 30.85 0 42.95-34.1 46.45-34.1 58.9 0ZM44.65-29.2L38.9-12.65 50.75-12.65 44.65-29.2ZM67.2 0L63.45 0 63.45-34.1 82.05-34.1 82.05-30.95 67.2-30.95 67.2-19.05 78.2-19.05 78.2-16 67.2-16 67.2 0ZM89.74 0L85.99 0 85.99-34.1 104.59-34.1 104.59-30.95 89.74-30.95 89.74-19.05 100.74-19.05 100.74-16 89.74-16 89.74 0ZM127.79 0L108.54 0 108.54-34.1 127.64-34.1 127.64-30.95 112.29-30.95 112.29-19.05 124.29-19.05 124.29-16 112.29-16 112.29-3.1 127.79-3.1 127.79 0ZM142.84 0L132.49 0 132.49-3.3 135.79-3.3 135.79-30.8 132.49-30.8 132.49-34.1 142.84-34.1 142.84-30.8 139.54-30.8 139.54-3.3 142.84-3.3 142.84 0ZM153.34 0L149.59 0 149.59-34.1 153.59-34.1 170.94-5.65 170.94-34.1 174.69-34.1 174.69 0 170.69 0 153.34-28.35 153.34 0ZM201.88 0L182.63 0 182.63-34.1 201.73-34.1 201.73-30.95 186.38-30.95 186.38-19.05 198.38-19.05 198.38-16 186.38-16 186.38-3.1 201.88-3.1 201.88 0ZM231.63 0.8Q227.33 0.8 224.2-1.33 221.08-3.45 219.4-7.43 217.73-11.4 217.73-16.95L217.73-16.95Q217.73-22.55 219.35-26.58 220.98-30.6 224-32.73 227.03-34.85 231.18-34.85L231.18-34.85Q235.43-34.85 238.45-32.98 241.48-31.1 243.18-27.7L243.18-27.7 240.18-25.95Q238.58-28.9 236.43-30.18 234.28-31.45 231.18-31.45L231.18-31.45Q226.73-31.45 224.2-27.63 221.68-23.8 221.68-17L221.68-17Q221.68-12.55 222.83-9.3 223.98-6.05 226.13-4.33 228.28-2.6 231.13-2.6L231.13-2.6Q234.68-2.6 236.65-4.17 238.63-5.75 240.33-9.1L240.33-9.1 243.48-7.2Q241.68-3.3 238.7-1.25 235.73 0.8 231.63 0.8L231.63 0.8ZM262.63 0.8Q258.38 0.8 255.05-1.48 251.73-3.75 249.85-7.8 247.98-11.85 247.98-17L247.98-17Q247.98-22.15 249.85-26.23 251.73-30.3 255.05-32.58 258.38-34.85 262.63-34.85L262.63-34.85Q266.88-34.85 270.2-32.58 273.53-30.3 275.4-26.23 277.28-22.15 277.28-16.95L277.28-16.95Q277.28-11.8 275.4-7.78 273.53-3.75 270.2-1.48 266.88 0.8 262.63 0.8L262.63 0.8ZM262.63-2.65Q265.73-2.65 268.2-4.48 270.68-6.3 272.08-9.58 273.48-12.85 273.48-17L273.48-17Q273.48-21.15 272.08-24.45 270.68-27.75 268.2-29.6 265.73-31.45 262.63-31.45L262.63-31.45Q259.53-31.45 257.05-29.6 254.58-27.75 253.18-24.45 251.78-21.15 251.78-17L251.78-17Q251.78-12.85 253.18-9.58 254.58-6.3 257.05-4.48 259.53-2.65 262.63-2.65L262.63-2.65ZM307.07 0L303.12 0 294.47-15.05 287.72-15.05 287.72 0 283.97 0 283.97-34.1 295.37-34.1Q298.47-34.1 300.82-32.9 303.17-31.7 304.42-29.53 305.67-27.35 305.67-24.55L305.67-24.55Q305.67-21.15 303.62-18.73 301.57-16.3 298.17-15.45L298.17-15.45 307.07 0ZM287.72-31L287.72-18.15 294.87-18.15Q298.17-18.15 299.95-19.9 301.72-21.65 301.72-24.55L301.72-24.55Q301.72-27.45 299.95-29.23 298.17-31 294.87-31L294.87-31 287.72-31ZM316.77 0L313.02 0 313.02-34.1 317.02-34.1 334.37-5.65 334.37-34.1 338.12-34.1 338.12 0 334.12 0 316.77-28.35 316.77 0ZM365.32 0L346.07 0 346.07-34.1 365.17-34.1 365.17-30.95 349.82-30.95 349.82-19.05 361.82-19.05 361.82-16 349.82-16 349.82-3.1 365.32-3.1 365.32 0ZM394.32 0L390.37 0 381.72-15.05 374.97-15.05 374.97 0 371.22 0 371.22-34.1 382.62-34.1Q385.72-34.1 388.07-32.9 390.42-31.7 391.67-29.53 392.92-27.35 392.92-24.55L392.92-24.55Q392.92-21.15 390.87-18.73 388.82-16.3 385.42-15.45L385.42-15.45 394.32 0ZM374.97-31L374.97-18.15 382.12-18.15Q385.42-18.15 387.19-19.9 388.97-21.65 388.97-24.55L388.97-24.55Q388.97-27.45 387.19-29.23 385.42-31 382.12-31L382.12-31 374.97-31Z" opacity="1" transform="matrix(1,0,0,1,0,0)" fill="#c56e33" class="undefined-text-0" data-fill-palette-color="primary" id="text-0"></path></svg></g></svg></g><g transform="matrix(1,0,0,1,0,44.50722060747701)"><svg viewBox="0 0 395.52 22.252242042900917" height="22.252242042900917" width="395.52"><g transform="matrix(1,0,0,1,0,0)"><svg width="395.52" viewBox="2 -39.65 899.38 50.6" height="22.252242042900917" data-palette-color="#c56e33"><path d="M17.7-35.25Q20.35-35.25 22.28-34.3 24.2-33.35 25.8-31.55L25.8-31.55 22.4-28.2Q21.3-29.3 20.15-29.85 19-30.4 17.65-30.4L17.65-30.4Q14.45-30.4 12.4-27.53 10.35-24.65 9.43-20.4 8.5-16.15 8.5-11.8L8.5-11.8Q8.5-7.95 9.73-6.15 10.95-4.35 13.2-4.35L13.2-4.35Q14.8-4.35 16.03-4.98 17.25-5.6 19.25-7.05L19.25-7.05 21.6-3.25Q17.3 0.75 12.15 0.75L12.15 0.75Q7.5 0.75 4.75-2.6 2-5.95 2-12.15L2-12.15Q2-18.05 3.73-23.33 5.45-28.6 9-31.93 12.55-35.25 17.7-35.25L17.7-35.25ZM39.76 0.75Q35.61 0.75 33.31-1.93 31.01-4.6 31.01-9.4L31.01-9.4Q31.01-13.8 32.38-17.85 33.76-21.9 36.63-24.53 39.51-27.15 43.76-27.15L43.76-27.15Q47.91-27.15 50.18-24.53 52.46-21.9 52.46-17.05L52.46-17.05Q52.46-12.7 51.11-8.63 49.76-4.55 46.88-1.9 44.01 0.75 39.76 0.75L39.76 0.75ZM40.16-3.95Q42.36-3.95 43.73-6.23 45.11-8.5 45.71-11.68 46.31-14.85 46.31-17.8L46.31-17.8Q46.31-22.5 43.36-22.5L43.36-22.5Q41.16-22.5 39.78-20.25 38.41-18 37.81-14.8 37.21-11.6 37.21-8.65L37.21-8.65Q37.21-3.95 40.16-3.95L40.16-3.95ZM75.12-33.05Q73.62-33.05 72.82-32.13 72.02-31.2 71.77-29.2L71.77-29.2 71.37-26.45 76.57-26.45 75.22-22 70.77-22 67.97-1.85Q67.42 2.1 66.07 4.5 64.72 6.9 62.82 8.2 60.92 9.5 57.82 10.85L57.82 10.85 56.37 6.35Q58.12 5.55 59.17 4.65 60.22 3.75 60.92 2.2 61.62 0.65 61.97-2L61.97-2 64.72-22 61.42-22 62.07-26.45 65.32-26.45 65.77-29.55Q66.27-33.25 68.57-35.5 70.87-37.75 74.62-37.75L74.62-37.75Q77.97-37.75 80.62-35.7L80.62-35.7 78.42-32.05Q76.72-33.05 75.12-33.05L75.12-33.05ZM95.28-33.05Q93.78-33.05 92.98-32.13 92.18-31.2 91.93-29.2L91.93-29.2 91.53-26.45 96.73-26.45 95.38-22 90.93-22 88.13-1.85Q87.58 2.1 86.23 4.5 84.88 6.9 82.98 8.2 81.08 9.5 77.98 10.85L77.98 10.85 76.53 6.35Q78.28 5.55 79.33 4.65 80.38 3.75 81.08 2.2 81.78 0.65 82.13-2L82.13-2 84.88-22 81.58-22 82.23-26.45 85.48-26.45 85.93-29.55Q86.43-33.25 88.73-35.5 91.03-37.75 94.78-37.75L94.78-37.75Q98.13-37.75 100.78-35.7L100.78-35.7 98.58-32.05Q96.88-33.05 95.28-33.05L95.28-33.05ZM114.49-27.15Q118.09-27.15 120.11-25.25 122.14-23.35 122.14-20.4L122.14-20.4Q122.14-15.3 118.16-12.93 114.19-10.55 107.59-9.75L107.59-9.75 107.59-9.05Q107.59-6.4 108.51-5.23 109.44-4.05 111.19-4.05L111.19-4.05Q112.64-4.05 113.91-4.6 115.19-5.15 116.84-6.35L116.84-6.35 119.04-2.65Q114.99 0.75 110.34 0.75L110.34 0.75Q106.19 0.75 103.84-1.83 101.49-4.4 101.49-9.15L101.49-9.15Q101.49-13.75 102.89-17.88 104.29-22 107.24-24.58 110.19-27.15 114.49-27.15L114.49-27.15ZM107.99-13.8Q112.19-14.3 114.19-15.9 116.19-17.5 116.19-20.25L116.19-20.25Q116.19-22.8 113.89-22.8L113.89-22.8Q111.49-22.8 110.04-20.23 108.59-17.65 107.99-13.8L107.99-13.8ZM142.9-27.15Q146.5-27.15 148.52-25.25 150.55-23.35 150.55-20.4L150.55-20.4Q150.55-15.3 146.57-12.93 142.6-10.55 136-9.75L136-9.75 136-9.05Q136-6.4 136.92-5.23 137.85-4.05 139.6-4.05L139.6-4.05Q141.05-4.05 142.32-4.6 143.6-5.15 145.25-6.35L145.25-6.35 147.45-2.65Q143.4 0.75 138.75 0.75L138.75 0.75Q134.6 0.75 132.25-1.83 129.9-4.4 129.9-9.15L129.9-9.15Q129.9-13.75 131.3-17.88 132.7-22 135.65-24.58 138.6-27.15 142.9-27.15L142.9-27.15ZM136.4-13.8Q140.6-14.3 142.6-15.9 144.6-17.5 144.6-20.25L144.6-20.25Q144.6-22.8 142.3-22.8L142.3-22.8Q139.9-22.8 138.45-20.23 137-17.65 136.4-13.8L136.4-13.8ZM187.12-27.15Q191.27-27.15 195.27-24.95L195.27-24.95 192.67-6.8Q192.52-5.9 192.52-5.25L192.52-5.25Q192.52-4.6 192.77-4.17 193.02-3.75 193.62-3.45L193.62-3.45 191.72 0.65Q187.72 0.15 187.02-3.25L187.02-3.25Q185.57-1.3 184.04-0.28 182.52 0.75 180.47 0.75L180.47 0.75Q177.22 0.75 175.39-1.75 173.57-4.25 173.57-8.5L173.57-8.5Q173.57-13.15 174.97-17.4 176.37-21.65 179.42-24.4 182.47-27.15 187.12-27.15L187.12-27.15ZM186.77-22.65Q184.42-22.65 182.84-20.55 181.27-18.45 180.49-15.18 179.72-11.9 179.72-8.4L179.72-8.4Q179.72-6 180.37-4.95 181.02-3.9 182.32-3.9L182.32-3.9Q183.52-3.9 184.54-4.88 185.57-5.85 186.82-7.75L186.82-7.75 188.82-22.25Q187.87-22.65 186.77-22.65L186.77-22.65ZM236.69-37.6L242.69-37 237.49 0 232.14 0 232.29-3.6Q230.94-1.45 229.34-0.35 227.74 0.75 225.64 0.75L225.64 0.75Q222.44 0.75 220.69-1.73 218.94-4.2 218.94-8.6L218.94-8.6Q218.94-13 220.19-17.3 221.44-21.6 223.96-24.4 226.49-27.2 230.04-27.2L230.04-27.2Q233.29-27.2 234.89-24.45L234.89-24.45 236.69-37.6ZM231.04-22.55Q229.09-22.55 227.74-20.3 226.39-18.05 225.74-14.78 225.09-11.5 225.09-8.55L225.09-8.55Q225.09-3.9 227.74-3.9L227.74-3.9Q229.04-3.9 230.24-5.15 231.44-6.4 232.69-8.8L232.69-8.8 234.24-20.05Q233.64-21.35 232.91-21.95 232.19-22.55 231.04-22.55L231.04-22.55ZM262.85-27.15Q267-27.15 271-24.95L271-24.95 268.4-6.8Q268.25-5.9 268.25-5.25L268.25-5.25Q268.25-4.6 268.5-4.17 268.75-3.75 269.35-3.45L269.35-3.45 267.45 0.65Q263.45 0.15 262.75-3.25L262.75-3.25Q261.3-1.3 259.77-0.28 258.25 0.75 256.2 0.75L256.2 0.75Q252.95 0.75 251.12-1.75 249.3-4.25 249.3-8.5L249.3-8.5Q249.3-13.15 250.7-17.4 252.1-21.65 255.15-24.4 258.2-27.15 262.85-27.15L262.85-27.15ZM262.5-22.65Q260.15-22.65 258.57-20.55 257-18.45 256.22-15.18 255.45-11.9 255.45-8.4L255.45-8.4Q255.45-6 256.1-4.95 256.75-3.9 258.05-3.9L258.05-3.9Q259.25-3.9 260.27-4.88 261.3-5.85 262.55-7.75L262.55-7.75 264.55-22.25Q263.6-22.65 262.5-22.65L262.5-22.65ZM300.95-26.45L290.5 0.15Q288.45 5.5 285.33 7.93 282.2 10.35 277.1 10.85L277.1 10.85 277 6.55Q280.3 5.85 281.95 4.53 283.6 3.2 285 0L285 0 282.75 0 279.9-26.45 286.15-26.45 287.25-4.25 294.6-26.45 300.95-26.45ZM309.31-7.05Q310.81-7.05 311.69-6.18 312.56-5.3 312.56-3.75L312.56-3.75Q312.56-2.7 312.16-1.68 311.76-0.65 310.71 1.35L310.71 1.35 306.96 8.55 303.51 8.55 306.51-0.05Q305.21-1 305.21-2.7L305.21-2.7Q305.21-4.5 306.36-5.78 307.51-7.05 309.31-7.05L309.31-7.05ZM349.03-37.7L346.93-22.6Q348.53-24.9 350.31-26.03 352.08-27.15 354.28-27.15L354.28-27.15Q356.93-27.15 358.53-25.55 360.13-23.95 360.13-21.3L360.13-21.3Q360.13-18.3 358.51-16.03 356.88-13.75 353.48-11.95L353.48-11.95 357.48 0 351.13 0 347.28-12.85Q350.93-14.15 352.46-15.95 353.98-17.75 353.98-20.35L353.98-20.35Q353.98-22.7 352.08-22.7L352.08-22.7Q350.68-22.7 349.11-21.08 347.53-19.45 345.98-16.25L345.98-16.25 343.78 0 337.73 0 342.93-37.05 349.03-37.7ZM380.64-27.15Q384.24-27.15 386.27-25.25 388.29-23.35 388.29-20.4L388.29-20.4Q388.29-15.3 384.32-12.93 380.34-10.55 373.74-9.75L373.74-9.75 373.74-9.05Q373.74-6.4 374.67-5.23 375.59-4.05 377.34-4.05L377.34-4.05Q378.79-4.05 380.07-4.6 381.34-5.15 382.99-6.35L382.99-6.35 385.19-2.65Q381.14 0.75 376.49 0.75L376.49 0.75Q372.34 0.75 369.99-1.83 367.64-4.4 367.64-9.15L367.64-9.15Q367.64-13.75 369.04-17.88 370.44-22 373.39-24.58 376.34-27.15 380.64-27.15L380.64-27.15ZM374.14-13.8Q378.34-14.3 380.34-15.9 382.34-17.5 382.34-20.25L382.34-20.25Q382.34-22.8 380.04-22.8L380.04-22.8Q377.64-22.8 376.19-20.23 374.74-17.65 374.14-13.8L374.14-13.8ZM409.05-27.15Q412.65-27.15 414.68-25.25 416.7-23.35 416.7-20.4L416.7-20.4Q416.7-15.3 412.73-12.93 408.75-10.55 402.15-9.75L402.15-9.75 402.15-9.05Q402.15-6.4 403.08-5.23 404-4.05 405.75-4.05L405.75-4.05Q407.2-4.05 408.48-4.6 409.75-5.15 411.4-6.35L411.4-6.35 413.6-2.65Q409.55 0.75 404.9 0.75L404.9 0.75Q400.75 0.75 398.4-1.83 396.05-4.4 396.05-9.15L396.05-9.15Q396.05-13.75 397.45-17.88 398.85-22 401.8-24.58 404.75-27.15 409.05-27.15L409.05-27.15ZM402.55-13.8Q406.75-14.3 408.75-15.9 410.75-17.5 410.75-20.25L410.75-20.25Q410.75-22.8 408.45-22.8L408.45-22.8Q406.05-22.8 404.6-20.23 403.15-17.65 402.55-13.8L402.55-13.8ZM422.46 10.95L427.71-26.45 433.06-26.45 432.91-23.6Q435.81-27.15 439.61-27.15L439.61-27.15Q442.71-27.15 444.46-24.83 446.21-22.5 446.21-18.2L446.21-18.2Q446.21-13.25 444.91-8.95 443.61-4.65 440.81-1.95 438.01 0.75 433.76 0.75L433.76 0.75Q431.76 0.75 430.01 0L430.01 0 428.56 10.25 422.46 10.95ZM433.41-3.85Q435.66-3.85 437.16-6.1 438.66-8.35 439.36-11.65 440.06-14.95 440.06-18.1L440.06-18.1Q440.06-20.45 439.39-21.48 438.71-22.5 437.41-22.5L437.41-22.5Q436.31-22.5 435.06-21.63 433.81-20.75 432.76-19.35L432.76-19.35 430.66-4.45Q432.16-3.85 433.41-3.85L433.41-3.85ZM465.12-27.15Q467.52-27.15 469.52-26.3 471.52-25.45 473.02-23.9L473.02-23.9 470.27-20.55Q467.92-22.6 465.32-22.6L465.32-22.6Q463.72-22.6 462.8-21.75 461.87-20.9 461.87-19.5L461.87-19.5Q461.87-18.3 462.75-17.5 463.62-16.7 465.92-15.65L465.92-15.65Q468.62-14.45 469.95-12.8 471.27-11.15 471.27-8.45L471.27-8.45Q471.27-5.7 469.95-3.63 468.62-1.55 466.3-0.4 463.97 0.75 461.12 0.75L461.12 0.75Q455.87 0.75 452.32-3.15L452.32-3.15 455.62-6.45Q456.92-5.2 458.22-4.53 459.52-3.85 461.12-3.85L461.12-3.85Q463.07-3.85 464.1-5 465.12-6.15 465.12-7.7L465.12-7.7Q465.12-9.2 464.27-10.08 463.42-10.95 461.12-11.95L461.12-11.95Q458.32-13.15 457.07-14.73 455.82-16.3 455.82-18.85L455.82-18.85Q455.82-21.1 457.02-23 458.22-24.9 460.35-26.03 462.47-27.15 465.12-27.15L465.12-27.15ZM505.24-22L503.09-6.8Q503.04-6.55 503.04-6.1L503.04-6.1Q503.04-4.2 504.79-4.2L504.79-4.2Q505.39-4.2 505.94-4.4 506.49-4.6 507.34-5.05L507.34-5.05 508.84-1.1Q506.24 0.75 503.09 0.75L503.09 0.75Q500.19 0.75 498.59-0.9 496.99-2.55 496.99-5.45L496.99-5.45Q496.99-5.9 497.09-7L497.09-7 499.19-22 495.99-22 496.64-26.45 500.04-26.45 501.54-32.45 506.79-33.05 505.84-26.45 510.79-26.45 509.44-22 505.24-22ZM533-27.2Q535.35-27.2 536.78-25.55 538.2-23.9 538.2-21.05L538.2-21.05Q538.2-20.2 538.05-19.3L538.05-19.3 535.3 0 529.25 0 531.85-18.6Q531.95-19.4 531.95-19.7L531.95-19.7Q531.95-21.85 530.45-21.85L530.45-21.85Q528.35-21.85 525.3-15.7L525.3-15.7 523.2 0 517.15 0 522.35-37 528.45-37.6 526.3-22.35Q529.15-27.2 533-27.2L533-27.2ZM560.11-27.15Q563.71-27.15 565.73-25.25 567.76-23.35 567.76-20.4L567.76-20.4Q567.76-15.3 563.78-12.93 559.81-10.55 553.21-9.75L553.21-9.75 553.21-9.05Q553.21-6.4 554.13-5.23 555.06-4.05 556.81-4.05L556.81-4.05Q558.26-4.05 559.53-4.6 560.81-5.15 562.46-6.35L562.46-6.35 564.66-2.65Q560.61 0.75 555.96 0.75L555.96 0.75Q551.81 0.75 549.46-1.83 547.11-4.4 547.11-9.15L547.11-9.15Q547.11-13.75 548.51-17.88 549.91-22 552.86-24.58 555.81-27.15 560.11-27.15L560.11-27.15ZM553.61-13.8Q557.81-14.3 559.81-15.9 561.81-17.5 561.81-20.25L561.81-20.25Q561.81-22.8 559.51-22.8L559.51-22.8Q557.11-22.8 555.66-20.23 554.21-17.65 553.61-13.8L553.61-13.8ZM604.83-33.05Q603.33-33.05 602.53-32.13 601.73-31.2 601.48-29.2L601.48-29.2 601.08-26.45 606.28-26.45 604.93-22 600.48-22 597.68-1.85Q597.13 2.1 595.78 4.5 594.43 6.9 592.53 8.2 590.63 9.5 587.53 10.85L587.53 10.85 586.08 6.35Q587.83 5.55 588.88 4.65 589.93 3.75 590.63 2.2 591.33 0.65 591.68-2L591.68-2 594.43-22 591.13-22 591.78-26.45 595.03-26.45 595.48-29.55Q595.98-33.25 598.28-35.5 600.58-37.75 604.33-37.75L604.33-37.75Q607.68-37.75 610.33-35.7L610.33-35.7 608.13-32.05Q606.43-33.05 604.83-33.05L604.83-33.05ZM624.49-27.15Q628.64-27.15 632.64-24.95L632.64-24.95 630.04-6.8Q629.89-5.9 629.89-5.25L629.89-5.25Q629.89-4.6 630.14-4.17 630.39-3.75 630.99-3.45L630.99-3.45 629.09 0.65Q625.09 0.15 624.39-3.25L624.39-3.25Q622.94-1.3 621.41-0.28 619.89 0.75 617.84 0.75L617.84 0.75Q614.59 0.75 612.76-1.75 610.94-4.25 610.94-8.5L610.94-8.5Q610.94-13.15 612.34-17.4 613.74-21.65 616.79-24.4 619.84-27.15 624.49-27.15L624.49-27.15ZM624.14-22.65Q621.79-22.65 620.21-20.55 618.64-18.45 617.86-15.18 617.09-11.9 617.09-8.4L617.09-8.4Q617.09-6 617.74-4.95 618.39-3.9 619.69-3.9L619.69-3.9Q620.89-3.9 621.91-4.88 622.94-5.85 624.19-7.75L624.19-7.75 626.19-22.25Q625.24-22.65 624.14-22.65L624.14-22.65ZM650.3-22L648.15-6.8Q648.1-6.55 648.1-6.1L648.1-6.1Q648.1-4.2 649.85-4.2L649.85-4.2Q650.45-4.2 651-4.4 651.55-4.6 652.4-5.05L652.4-5.05 653.9-1.1Q651.3 0.75 648.15 0.75L648.15 0.75Q645.25 0.75 643.65-0.9 642.05-2.55 642.05-5.45L642.05-5.45Q642.05-5.9 642.15-7L642.15-7 644.25-22 641.05-22 641.7-26.45 645.1-26.45 646.6-32.45 651.85-33.05 650.9-26.45 655.85-26.45 654.5-22 650.3-22ZM665.91-26.45L671.96-26.45 668.26 0 662.21 0 665.91-26.45ZM669.71-32.2Q668.16-32.2 667.28-33.08 666.41-33.95 666.41-35.45L666.41-35.45Q666.41-37.35 667.58-38.5 668.76-39.65 670.51-39.65L670.51-39.65Q672.06-39.65 672.93-38.78 673.81-37.9 673.81-36.4L673.81-36.4Q673.81-34.55 672.61-33.38 671.41-32.2 669.71-32.2L669.71-32.2ZM693.72-27.15Q697.87-27.15 701.87-24.95L701.87-24.95 698.47-0.65Q697.57 5.4 694.77 8.18 691.97 10.95 687.07 10.95L687.07 10.95Q684.87 10.95 682.77 10.25 680.67 9.55 678.97 8.3L678.97 8.3 681.22 4.2Q684.22 6.05 686.92 6.05L686.92 6.05Q689.12 6.05 690.57 4.75 692.02 3.45 692.52-0.05L692.52-0.05 692.97-3.45Q691.67-1.75 690.32-0.88 688.97 0 687.02 0L687.02 0Q683.82 0 682.02-2.45 680.22-4.9 680.22-9.05L680.22-9.05Q680.22-13.6 681.62-17.73 683.02-21.85 686.04-24.5 689.07-27.15 693.72-27.15L693.72-27.15ZM693.37-22.65Q691.02-22.65 689.44-20.63 687.87-18.6 687.09-15.45 686.32-12.3 686.32-8.95L686.32-8.95Q686.32-6.7 686.97-5.68 687.62-4.65 688.92-4.65L688.92-4.65Q690.12-4.65 691.22-5.65 692.32-6.65 693.52-8.45L693.52-8.45 695.42-22.25Q694.47-22.65 693.37-22.65L693.37-22.65ZM715.63 0.75Q713.23 0.75 711.8-0.88 710.38-2.5 710.38-5.25L710.38-5.25Q710.38-6.25 710.48-6.8L710.48-6.8 713.18-26.45 719.23-26.45 716.53-7.15Q716.48-6.85 716.48-6.35L716.48-6.35Q716.48-4.4 717.88-4.4L717.88-4.4Q720.08-4.4 722.68-9.05L722.68-9.05 725.18-26.45 731.18-26.45 727.48 0 722.28 0 722.53-4.05Q720.98-1.7 719.43-0.48 717.88 0.75 715.63 0.75L715.63 0.75ZM752.44-27.15Q756.04-27.15 758.06-25.25 760.09-23.35 760.09-20.4L760.09-20.4Q760.09-15.3 756.11-12.93 752.14-10.55 745.54-9.75L745.54-9.75 745.54-9.05Q745.54-6.4 746.46-5.23 747.39-4.05 749.14-4.05L749.14-4.05Q750.59-4.05 751.86-4.6 753.14-5.15 754.79-6.35L754.79-6.35 756.99-2.65Q752.94 0.75 748.29 0.75L748.29 0.75Q744.14 0.75 741.79-1.83 739.44-4.4 739.44-9.15L739.44-9.15Q739.44-13.75 740.84-17.88 742.24-22 745.19-24.58 748.14-27.15 752.44-27.15L752.44-27.15ZM745.94-13.8Q750.14-14.3 752.14-15.9 754.14-17.5 754.14-20.25L754.14-20.25Q754.14-22.8 751.84-22.8L751.84-22.8Q749.44-22.8 747.99-20.23 746.54-17.65 745.94-13.8L745.94-13.8ZM796.66-27.15Q800.81-27.15 804.81-24.95L804.81-24.95 802.21-6.8Q802.06-5.9 802.06-5.25L802.06-5.25Q802.06-4.6 802.31-4.17 802.56-3.75 803.16-3.45L803.16-3.45 801.26 0.65Q797.26 0.15 796.56-3.25L796.56-3.25Q795.11-1.3 793.58-0.28 792.06 0.75 790.01 0.75L790.01 0.75Q786.76 0.75 784.93-1.75 783.11-4.25 783.11-8.5L783.11-8.5Q783.11-13.15 784.51-17.4 785.91-21.65 788.96-24.4 792.01-27.15 796.66-27.15L796.66-27.15ZM796.31-22.65Q793.96-22.65 792.38-20.55 790.81-18.45 790.03-15.18 789.26-11.9 789.26-8.4L789.26-8.4Q789.26-6 789.91-4.95 790.56-3.9 791.86-3.9L791.86-3.9Q793.06-3.9 794.08-4.88 795.11-5.85 796.36-7.75L796.36-7.75 798.36-22.25Q797.41-22.65 796.31-22.65L796.31-22.65ZM838.01-26.45L843.81-26.45 835.56 0 828.46 0 828.21-21 822.36 0 815.16 0 814.21-26.45 820.21-26.45 819.71-4.5 826.16-26.45 832.21-26.45 832.31-4.5 838.01-26.45ZM863.27-27.15Q867.42-27.15 871.42-24.95L871.42-24.95 868.82-6.8Q868.67-5.9 868.67-5.25L868.67-5.25Q868.67-4.6 868.92-4.17 869.17-3.75 869.77-3.45L869.77-3.45 867.87 0.65Q863.87 0.15 863.17-3.25L863.17-3.25Q861.72-1.3 860.2-0.28 858.67 0.75 856.62 0.75L856.62 0.75Q853.37 0.75 851.55-1.75 849.72-4.25 849.72-8.5L849.72-8.5Q849.72-13.15 851.12-17.4 852.52-21.65 855.57-24.4 858.62-27.15 863.27-27.15L863.27-27.15ZM862.92-22.65Q860.57-22.65 859-20.55 857.42-18.45 856.65-15.18 855.87-11.9 855.87-8.4L855.87-8.4Q855.87-6 856.52-4.95 857.17-3.9 858.47-3.9L858.47-3.9Q859.67-3.9 860.7-4.88 861.72-5.85 862.97-7.75L862.97-7.75 864.97-22.25Q864.02-22.65 862.92-22.65L862.92-22.65ZM901.38-26.45L890.93 0.15Q888.88 5.5 885.76 7.93 882.63 10.35 877.53 10.85L877.53 10.85 877.43 6.55Q880.73 5.85 882.38 4.53 884.03 3.2 885.43 0L885.43 0 883.18 0 880.33-26.45 886.58-26.45 887.68-4.25 895.03-26.45 901.38-26.45Z" opacity="1" transform="matrix(1,0,0,1,0,0)" fill="#c56e33" class="undefined-text-1" data-fill-palette-color="secondary" id="text-1"></path></svg></g></svg></g></svg></g></svg></g><g transform="matrix(1,0,0,1,121.07691012530002,0)"><svg viewBox="0 0 153.36617974939995 153.36617974939995" height="153.36617974939995" width="153.36617974939995"><g><svg></svg></g><g id="icon-0"><svg viewBox="0 0 153.36617974939995 153.36617974939995" height="153.36617974939995" width="153.36617974939995"><g><rect width="139.4496189943618" height="139.4496189943618" x="6.958280377519074" y="6.958280377519074" fill="#c56e33" data-fill-palette-color="accent"></rect><rect width="139.4496189943618" height="139.4496189943618" x="2.6645352591003757e-15" y="13.916560755038144" fill="#c56e33" opacity="0.5" data-fill-palette-color="accent"></rect></g><g transform="matrix(1,0,0,1,25.06443509809997,19.880801078625915)"><svg viewBox="0 0 103.2373095532 113.60457759214812" height="113.60457759214812" width="103.2373095532"><g><svg xmlns="http://www.w3.org/2000/svg" xmlns:xlink="http://www.w3.org/1999/xlink" version="1.1" x="0" y="0" viewBox="13.799999999999999 6.81 75.88000000000001 83.5" enable-background="new 0 0 100 100" xml:space="preserve" height="113.60457759214812" width="103.2373095532" class="icon-g$-0" data-fill-palette-color="background" id="g$-0"><path d="M75.204 19.549c-0.132-0.084-0.263-0.17-0.396-0.246-0.734-0.481-1.508-0.906-2.291-1.283-2.161-1.057-4.481-1.773-6.896-2.169-10.869-1.802-23.803 2.831-33.832 12.859-10.83 10.83-15.321 24.982-12.349 36.246 0.661 2.51 1.698 4.887 3.113 7.038h0.009c0.349 0.548 0.736 1.085 1.142 1.604 0.019 0.018 0.028 0.028 0.047 0.047 0.028 0.037 0.056 0.075 0.084 0.104 0.425 0.414 1.029 0.585 1.604 0.435 0.076-0.021 0.15-0.038 0.226-0.058 4.416-1.142 12.548-4.009 19.123-10.585 4.076-4.065 4.784-8.151 5.604-12.915 0.973-5.576 1.981-11.33 8.388-17.746 6.584-6.575 12.312-9.236 15.963-10.311 0.632-0.18 1.093-0.717 1.188-1.359 0.01-0.085 0.019-0.169 0.019-0.245C75.96 20.398 75.687 19.87 75.204 19.549zM60.997 26.37c-1.482 1.189-3.019 2.557-4.595 4.132-4.878 4.877-6.991 9.623-8.151 13.906-0.538 2-0.868 3.905-1.179 5.67-0.783 4.509-1.349 7.773-4.66 11.085-5.604 5.604-12.5 8.273-16.708 9.462-0.245-0.358-0.48-0.717-0.698-1.085-1.038-1.717-1.792-3.595-2.283-5.595-2.52-10.085 1.698-23.094 11.444-32.85 8.99-8.99 20.792-13.33 30.528-11.924 1.133 0.15 2.228 0.396 3.293 0.716 0.755 0.217 1.48 0.481 2.198 0.783C67.554 21.832 64.431 23.615 60.997 26.37z" fill="#ffffff" data-fill-palette-color="background"></path><path d="M55.38 6.81l-2.07 2.14C43 10.22 32.63 15.52 24.24 23.91c-2.84 2.84-5.3 5.89-7.36 9.06l-3.08 1.32c2.4-4.14 5.43-8.1 9.07-11.74C32.17 13.23 43.89 7.59 55.38 6.81z" fill="#ffffff" data-fill-palette-color="background"></path><path d="M51.06 11.26l-2.45 2.53c-7.72 2.05-15.28 6.49-21.64 12.85-1.06 1.06-2.07 2.16-3.01 3.28l-3.73 1.6c1.59-2.16 3.39-4.25 5.37-6.24C33.01 17.87 42 12.97 51.06 11.26z" fill="#ffffff" data-fill-palette-color="background"></path><path d="M89.68 59.09C87.05 65.61 82.93 71.9 77.45 77.38c-5.88 5.88-12.73 10.29-19.88 12.93l0.899-2.42c6.33-2.59 12.37-6.63 17.62-11.88 4.66-4.66 8.3-9.93 10.84-15.399L89.68 59.09z" fill="#ffffff" data-fill-palette-color="background"></path><path d="M83.95 62.25c-2.34 4.39-5.431 8.6-9.23 12.4C70.11 79.25 64.88 82.89 59.4 85.38l0.97-2.6c4.63-2.351 9.04-5.55 12.99-9.5 2.87-2.88 5.33-5.99 7.34-9.24L83.95 62.25z" fill="#ffffff" data-fill-palette-color="background"></path><path d="M83.733 32.511c-0.604-2.566-1.586-4.991-2.964-7.188-0.273-0.453-0.574-0.887-0.886-1.321-0.085-0.123-0.188-0.226-0.293-0.311-0.301-0.246-0.669-0.378-1.056-0.387-0.208 0-0.548 0.009-1 0.057-2.688 0.273-9.501 1.839-17.964 10.302-5.857 5.859-6.792 11.217-7.688 16.416-0.858 4.943-1.67 9.613-6.303 14.255-5.651 5.642-12.33 8.698-16.943 10.255-0.613 0.208-1.056 0.755-1.132 1.396-0.009 0.085-0.019 0.181-0.009 0.265 0.009 0.425 0.188 0.83 0.491 1.133 0.085 0.085 0.179 0.16 0.283 0.226 0.132 0.086 0.274 0.171 0.415 0.255 0.736 0.452 1.5 0.859 2.292 1.217 2.539 1.171 5.284 1.896 8.161 2.188C49.647 82.343 61.808 77.664 71.28 68.2 81.818 57.663 86.374 43.701 83.733 32.511zM68.893 65.824c-8.357 8.357-18.915 12.698-28.123 12.197-1.792-0.084-3.528-0.357-5.189-0.829-0.783-0.219-1.538-0.472-2.283-0.775 4.5-1.904 9.906-4.952 14.66-9.707 5.387-5.387 6.377-11.057 7.246-16.066 0.887-5.094 1.651-9.5 6.746-14.595 7.642-7.632 13.557-9.057 15.727-9.311 0.207 0.321 0.415 0.651 0.604 0.98 1.066 1.85 1.83 3.859 2.283 5.991C82.762 43.701 78.487 56.229 68.893 65.824z" fill="#ffffff" data-fill-palette-color="background"></path></svg></g></svg></g></svg></g></svg></g><g></g></svg></g><defs></defs></svg><rect width="395.52" height="228.62599886016602" fill="none" stroke="none" visibility="hidden"></rect></g></svg></g></svg>